<?xml version="1.0" encoding="UTF-8"?>
<svg width="35px" height="32px" viewBox="0 0 35 32" version="1.1" xmlns="http://www.w3.org/2000/svg" xmlns:xlink="http://www.w3.org/1999/xlink">
    <defs></defs>
    <g id="b-small" stroke="none" stroke-width="1" fill="none" fill-rule="evenodd">
        <path d="M0.145152956,0 C0.0645663648,0 0,0.0661026474 0,0.146300712 L0,4.96596139 C0,5.04567341 0.0645663648,5.10934581 0.145152956,5.10934581 L2.15641949,5.10934581 L2.15641949,26.2792047 L0.145152956,26.2792047 C0.0645663648,26.2792047 0,26.3453073 0,26.4245333 L0,31.2422498 C0,31.3243921 0.0645663648,31.3875784 0.145152956,31.3875784 L5.10753928,31.3875784 L6.29060869,29.483725 C8.22031771,31.055607 10.6796651,32 13.3603829,32 C19.5505011,32 24.5662882,26.9776569 24.5662882,20.7819919 C24.5662882,14.5843826 19.5505011,9.56252563 13.3603829,9.56252563 C11.888464,9.56252563 10.4835387,9.85026657 9.1936678,10.3688807 C9.14900535,10.3941553 9.12181951,10.4374136 9.12181951,10.491365 L9.12181951,16.2714583 C9.12181951,16.3118004 9.15434543,16.3467959 9.19803695,16.3467959 C9.21842633,16.3467959 9.2363884,16.3375609 9.25192317,16.3254097 C10.3330457,15.3260932 11.774866,14.7156158 13.3603829,14.7156158 C16.7071537,14.7156158 19.4203974,17.4301988 19.4203974,20.7819919 C19.4203974,24.1303826 16.7071537,26.8483679 13.3603829,26.8483679 C10.0150685,26.8483679 7.30182476,24.1303826 7.30182476,20.7819919 L7.30182476,2.57605905 C7.30182476,1.15290794 6.15128127,0 4.7288794,0 L0.145152956,0 Z" id="bv_b" fill="#00A690"></path>
        <path d="M31.0235873,18 C33.2233927,18 35,16.2078012 35,14.0027615 C35,11.7949603 33.2233927,10 31.0235873,10 C28.7839354,10 27,11.7949603 27,14.0027615 C27,16.2078012 28.7839354,18 31.0235873,18" id="dot_one" fill="#063D4B"></path>
        <path d="M31.0235873,32 C33.2233927,32 35,30.2078012 35,28.0013807 C35,25.7926591 33.2233927,24 31.0235873,24 C28.7839354,24 27,25.7926591 27,28.0013807 C27,30.2078012 28.7839354,32 31.0235873,32" id="dot_two" fill="#063D4B"></path>
    </g>
</svg>